<svg width="42" height="42" viewBox="0 0 42 42" fill="none" xmlns="http://www.w3.org/2000/svg">
<rect width="42" height="42" fill="#121417"/>
<path d="M17.981 29.368C17.9197 29.368 17.8583 29.299 17.797 29.161C17.7357 29.0383 17.6743 28.9003 17.613 28.747L12.346 16.258C12.1773 15.8747 11.9703 15.5603 11.725 15.315C11.4797 15.0543 11.15 14.8703 10.736 14.763C10.5213 14.6863 10.345 14.6173 10.207 14.556C10.069 14.4793 10 14.3797 10 14.257C10 14.1497 10.0613 14.0807 10.184 14.05C10.322 14.004 10.4753 13.981 10.644 13.981C11.0273 13.981 11.4183 13.9963 11.817 14.027C12.231 14.0423 12.6373 14.05 13.036 14.05C13.4807 14.05 13.91 14.0423 14.324 14.027C14.738 13.9963 15.106 13.981 15.428 13.981C15.6273 13.981 15.7883 14.004 15.911 14.05C16.0337 14.096 16.095 14.165 16.095 14.257C16.095 14.3797 16.0337 14.4717 15.911 14.533C15.7883 14.5943 15.6043 14.6633 15.359 14.74C15.1443 14.786 15.0063 14.878 14.945 15.016C14.899 15.154 14.876 15.3073 14.876 15.476C14.876 15.6753 14.899 15.867 14.945 16.051C14.991 16.235 15.0217 16.3347 15.037 16.35C15.3743 17.178 15.6887 17.96 15.98 18.696C16.2713 19.4167 16.5627 20.122 16.854 20.812C17.1453 21.4867 17.4443 22.1843 17.751 22.905C18.0577 23.6103 18.3873 24.3693 18.74 25.182C18.8167 25.3507 18.878 25.435 18.924 25.435C18.9853 25.435 19.0467 25.3583 19.108 25.205L20.718 21.502C20.764 21.3947 20.7947 21.3027 20.81 21.226C20.8407 21.134 20.856 21.0573 20.856 20.996C20.856 20.9193 20.8407 20.835 20.81 20.743C20.7793 20.651 20.741 20.5437 20.695 20.421L19.016 16.511C18.832 16.0663 18.5407 15.6907 18.142 15.384C17.7587 15.0773 17.36 14.8703 16.946 14.763C16.7313 14.6863 16.5627 14.6173 16.44 14.556C16.3173 14.4793 16.256 14.3797 16.256 14.257C16.256 14.1497 16.3097 14.0807 16.417 14.05C16.5397 14.004 16.6853 13.981 16.854 13.981C17.13 13.981 17.406 13.9887 17.682 14.004C17.9733 14.0193 18.2647 14.0347 18.556 14.05C18.8473 14.05 19.131 14.05 19.407 14.05C19.7903 14.05 20.1583 14.0423 20.511 14.027C20.879 13.9963 21.2163 13.981 21.523 13.981C21.7377 13.981 21.9063 14.004 22.029 14.05C22.167 14.096 22.236 14.165 22.236 14.257C22.236 14.3797 22.167 14.4793 22.029 14.556C21.9063 14.6173 21.7683 14.6863 21.615 14.763C21.477 14.8397 21.3773 14.947 21.316 15.085C21.224 15.131 21.1703 15.1923 21.155 15.269C21.155 15.3457 21.1703 15.4223 21.201 15.499C21.247 15.591 21.3083 15.7597 21.385 16.005C21.477 16.2503 21.5767 16.5187 21.684 16.81C21.8067 17.086 21.914 17.3543 22.006 17.615C22.1133 17.8757 22.1977 18.0673 22.259 18.19C22.351 18.3893 22.42 18.4813 22.466 18.466C22.5273 18.4507 22.5963 18.3587 22.673 18.19C22.7803 17.9293 22.903 17.6303 23.041 17.293C23.179 16.9403 23.3017 16.603 23.409 16.281C23.5163 15.9437 23.593 15.7137 23.639 15.591C23.6697 15.5143 23.685 15.4223 23.685 15.315C23.685 15.1157 23.6083 14.97 23.455 14.878C23.3017 14.786 23.1407 14.7017 22.972 14.625C22.8187 14.533 22.742 14.418 22.742 14.28C22.742 14.188 22.788 14.119 22.88 14.073C22.9873 14.027 23.1483 14.004 23.363 14.004C23.7157 14.004 23.9533 14.0117 24.076 14.027C24.214 14.0423 24.3903 14.05 24.605 14.05C24.8503 14.05 25.0727 14.0347 25.272 14.004C25.4713 13.9733 25.7397 13.958 26.077 13.958C26.261 13.958 26.4143 13.981 26.537 14.027C26.675 14.073 26.744 14.1497 26.744 14.257C26.744 14.3797 26.6827 14.4717 26.56 14.533C26.4373 14.5943 26.261 14.6557 26.031 14.717C25.5557 14.8243 25.2183 14.9777 25.019 15.177C24.835 15.361 24.6433 15.614 24.444 15.936C24.352 16.1353 24.2217 16.4037 24.053 16.741C23.8997 17.0783 23.7387 17.4387 23.57 17.822C23.4013 18.2053 23.248 18.5657 23.11 18.903C23.0487 19.041 23.0103 19.2097 22.995 19.409C22.9797 19.593 22.995 19.7463 23.041 19.869L25.18 25.251C25.226 25.3583 25.272 25.3967 25.318 25.366C25.364 25.32 25.41 25.251 25.456 25.159C25.9007 24.0397 26.376 22.721 26.882 21.203C27.4033 19.685 27.917 18.144 28.423 16.58C28.4997 16.35 28.5457 16.166 28.561 16.028C28.5917 15.8747 28.607 15.7443 28.607 15.637C28.5917 15.4223 28.5303 15.2383 28.423 15.085C28.331 14.9163 28.1623 14.809 27.917 14.763C27.7637 14.717 27.6027 14.6557 27.434 14.579C27.2653 14.5023 27.181 14.4027 27.181 14.28C27.181 14.188 27.2423 14.119 27.365 14.073C27.503 14.027 27.664 14.004 27.848 14.004C28.216 14.004 28.515 14.0117 28.745 14.027C28.975 14.0423 29.2203 14.05 29.481 14.05C29.8183 14.0347 30.148 14.0193 30.47 14.004C30.792 13.9733 31.1217 13.958 31.459 13.958C31.6583 13.958 31.827 13.981 31.965 14.027C32.103 14.0577 32.172 14.1343 32.172 14.257C32.172 14.3643 32.103 14.4563 31.965 14.533C31.827 14.5943 31.6507 14.6557 31.436 14.717C31.0833 14.7937 30.7843 14.9393 30.539 15.154C30.2937 15.3533 30.102 15.5833 29.964 15.844C29.826 16.1047 29.7033 16.35 29.596 16.58L25.088 28.793C25.0573 28.885 25.0037 28.9923 24.927 29.115C24.8503 29.2377 24.766 29.299 24.674 29.299C24.5973 29.299 24.513 29.253 24.421 29.161C24.3443 29.0843 24.283 28.9847 24.237 28.862C23.915 28.126 23.616 27.436 23.34 26.792C23.064 26.1327 22.7803 25.4427 22.489 24.722C22.213 24.0013 21.8757 23.1887 21.477 22.284C21.431 22.1767 21.385 22.1307 21.339 22.146C21.3083 22.1613 21.2623 22.238 21.201 22.376C20.8637 23.158 20.5493 23.8787 20.258 24.538C19.9667 25.182 19.6753 25.8413 19.384 26.516C19.108 27.1907 18.809 27.9267 18.487 28.724C18.4257 28.8773 18.349 29.023 18.257 29.161C18.1803 29.299 18.0883 29.368 17.981 29.368Z" fill="white"/>
</svg>
