<svg width="42" height="42" viewBox="0 0 42 42" fill="none" xmlns="http://www.w3.org/2000/svg">
<rect width="42" height="42" fill="#090B2F"/>
<path d="M26.3335 22.3333V33" stroke="#48DBFB" stroke-width="2" stroke-linecap="round" stroke-linejoin="round"/>
<path d="M15.6665 22.3333V33" stroke="#48DBFB" stroke-width="2" stroke-linecap="round" stroke-linejoin="round"/>
<path d="M21 25V35.6667" stroke="#48DBFB" stroke-width="2" stroke-linecap="round" stroke-linejoin="round"/>
<path d="M31.6668 27.1067C33.0685 26.4928 34.2163 25.4154 34.9176 24.0554C35.6189 22.6954 35.831 21.1355 35.5183 19.6376C35.2056 18.1397 34.3871 16.795 33.2002 15.8291C32.0134 14.8633 30.5304 14.3352 29.0002 14.3334H27.3202C26.8975 12.6967 26.092 11.184 24.9699 9.91976C23.8479 8.65556 22.4414 7.67612 20.8665 7.06218C19.2916 6.44824 17.5934 6.21738 15.9117 6.38861C14.2302 6.55985 12.6133 7.12828 11.1945 8.04707C9.77564 8.96585 8.59549 10.2087 7.75128 11.6731C6.90706 13.1375 6.42297 14.7816 6.33889 16.4698C6.2548 18.158 6.57315 19.8421 7.26768 21.3831C7.9622 22.9242 9.01303 24.2781 10.3335 25.3333" stroke="white" stroke-width="2" stroke-linecap="round" stroke-linejoin="round"/>
</svg>
