<svg width="2561" height="948" viewBox="0 0 2561 948" fill="none" xmlns="http://www.w3.org/2000/svg">
<path d="M537.5 850L-121.5 847.826L170.369 898.586C228.867 908.76 288.808 907.15 346.676 893.852L537.5 850Z" fill="#54A0FF" fill-opacity="0.25"/>
<path d="M1249.74 862.862L536 847L802.395 907.987C861.511 921.52 922.765 922.855 982.413 911.911L1249.74 862.862Z" fill="#54A0FF" fill-opacity="0.25"/>
<path d="M760.5 134.164L1470.46 134.164L1264.2 67.7567C1179.66 40.5398 1088.92 39.1811 1003.61 63.8547L760.5 134.164Z" fill="#48DBFB" fill-opacity="0.25"/>
<path d="M2561 871.529V84.9719L2297.53 104.512C2168.25 114.101 2038.26 107.277 1910.69 84.2039C1730.48 51.6107 1546.22 48.021 1364.88 73.5707L1084.89 113.019C986.546 126.874 886.591 124.428 789.044 105.779L592.572 68.2166C477.273 46.1733 359.524 39.8117 242.521 49.3045L0 68.9809V871.529L90.1107 886.95C173.596 901.238 258.783 902.599 342.683 890.987L520.016 866.444C596.351 855.879 673.663 854.308 750.364 861.765L1212.78 906.719C1330.81 918.193 1449.83 914.678 1566.98 896.256L1829.99 854.897C1960.26 834.414 2092.54 829.951 2223.89 841.609L2561 871.529Z" fill="url(#paint0_linear_321_16)"/>
<path d="M311.219 58.6711L151 -6L964 82.6667L662.289 110.331C542.822 121.286 422.466 103.575 311.219 58.6711Z" fill="black" fill-opacity="0.1"/>
<path d="M1176.22 863.931L1028 919L1887.5 947.5L1640.15 860.155C1489.83 807.073 1325.65 808.41 1176.22 863.931Z" fill="white" fill-opacity="0.1"/>
<defs>
<linearGradient id="paint0_linear_321_16" x1="1280.5" y1="35" x2="1280.5" y2="871.53" gradientUnits="userSpaceOnUse">
<stop stop-color="#48DBFB"/>
<stop offset="1" stop-color="#54A0FF"/>
</linearGradient>
</defs>
</svg>
