<svg width="64" height="64" viewBox="0 0 64 64" fill="none" xmlns="http://www.w3.org/2000/svg">
<g clip-path="url(#clip0_322_20)">
<path d="M22.8962 47.7418C22.8962 47.9645 22.6411 48.1426 22.3196 48.1426C21.9536 48.176 21.6986 47.9979 21.6986 47.7418C21.6986 47.5191 21.9536 47.341 22.2752 47.341C22.6079 47.3076 22.8962 47.4857 22.8962 47.7418ZM19.4476 47.2408C19.37 47.4635 19.5917 47.7195 19.9244 47.7863C20.2127 47.8977 20.5454 47.7863 20.6119 47.5637C20.6784 47.341 20.4677 47.085 20.1351 46.9848C19.8468 46.9068 19.5252 47.0182 19.4476 47.2408ZM24.3488 47.0516C24.0272 47.1295 23.8054 47.341 23.8387 47.5971C23.872 47.8197 24.1603 47.9645 24.4929 47.8865C24.8145 47.8086 25.0363 47.5971 25.003 47.3744C24.9698 47.1629 24.6704 47.0182 24.3488 47.0516ZM31.6452 4.39062C16.2651 4.39062 4.5 16.1135 4.5 31.5547C4.5 43.901 12.2399 54.466 23.2954 58.1844C24.7147 58.4404 25.2137 57.5609 25.2137 56.8373C25.2137 56.1471 25.1804 52.3396 25.1804 50.0018C25.1804 50.0018 17.4183 51.6717 15.7883 46.6842C15.7883 46.6842 14.5242 43.4445 12.7056 42.6096C12.7056 42.6096 10.1663 40.8617 12.8831 40.8951C12.8831 40.8951 15.6442 41.1178 17.1633 43.7674C19.5917 48.0647 23.6613 46.8289 25.247 46.0941C25.502 44.3129 26.2228 43.0771 27.0212 42.3424C20.8226 41.6521 14.5685 40.7504 14.5685 30.0406C14.5685 26.9791 15.4113 25.4428 17.1855 23.4834C16.8972 22.7598 15.9546 19.7762 17.4738 15.9242C19.7913 15.2006 25.125 18.9301 25.125 18.9301C27.3427 18.3066 29.7268 17.9838 32.0887 17.9838C34.4506 17.9838 36.8347 18.3066 39.0524 18.9301C39.0524 18.9301 44.3861 15.1895 46.7036 15.9242C48.2228 19.7873 47.2802 22.7598 46.9919 23.4834C48.7661 25.4539 49.8528 26.9902 49.8528 30.0406C49.8528 40.7838 43.3216 41.641 37.123 42.3424C38.1431 43.2219 39.0081 44.8918 39.0081 47.508C39.0081 51.2598 38.9748 55.9021 38.9748 56.815C38.9748 57.5387 39.4849 58.4182 40.8931 58.1621C51.9819 54.466 59.5 43.901 59.5 31.5547C59.5 16.1135 47.0252 4.39062 31.6452 4.39062ZM15.2782 42.7877C15.1341 42.899 15.1673 43.1551 15.3558 43.3666C15.5333 43.5447 15.7883 43.6227 15.9325 43.4779C16.0766 43.3666 16.0433 43.1105 15.8548 42.899C15.6774 42.7209 15.4224 42.643 15.2782 42.7877ZM14.0806 41.8859C14.003 42.0307 14.1139 42.2088 14.3357 42.3201C14.5131 42.4314 14.7349 42.398 14.8125 42.2422C14.8901 42.0975 14.7792 41.9193 14.5575 41.808C14.3357 41.7412 14.1583 41.7746 14.0806 41.8859ZM17.6734 45.8492C17.496 45.9939 17.5625 46.3279 17.8175 46.5395C18.0726 46.7955 18.3942 46.8289 18.5383 46.6508C18.6825 46.5061 18.6159 46.1721 18.3942 45.9605C18.1502 45.7045 17.8175 45.6711 17.6734 45.8492ZM16.4093 44.2127C16.2319 44.324 16.2319 44.6135 16.4093 44.8695C16.5867 45.1256 16.8861 45.2369 17.0302 45.1256C17.2077 44.9809 17.2077 44.6914 17.0302 44.4354C16.875 44.1793 16.5867 44.068 16.4093 44.2127Z" fill="white"/>
</g>
<defs>
<clipPath id="clip0_322_20">
<rect width="55" height="57" fill="white" transform="translate(4.5 3.5)"/>
</clipPath>
</defs>
</svg>
