<svg width="64" height="64" viewBox="0 0 64 64" fill="none" xmlns="http://www.w3.org/2000/svg">
<rect x="12" y="11" width="40" height="45" fill="white"/>
<path d="M52.625 7.9375H11.3643C9.47363 7.9375 7.9375 9.49512 7.9375 11.4072V52.5928C7.9375 54.5049 9.47363 56.0625 11.3643 56.0625H52.625C54.5156 56.0625 56.0625 54.5049 56.0625 52.5928V11.4072C56.0625 9.49512 54.5156 7.9375 52.625 7.9375ZM22.4824 49.1875H15.3496V26.2207H22.4932V49.1875H22.4824ZM18.916 23.084C16.6279 23.084 14.7803 21.2256 14.7803 18.9482C14.7803 16.6709 16.6279 14.8125 18.916 14.8125C21.1934 14.8125 23.0518 16.6709 23.0518 18.9482C23.0518 21.2363 21.2041 23.084 18.916 23.084V23.084ZM49.2197 49.1875H42.0869V38.0156C42.0869 35.3516 42.0332 31.9248 38.3809 31.9248C34.6641 31.9248 34.0947 34.8252 34.0947 37.8223V49.1875H26.9619V26.2207H33.8047V29.3574H33.9014C34.8574 27.5527 37.1885 25.6514 40.6582 25.6514C47.877 25.6514 49.2197 30.4102 49.2197 36.5977V49.1875V49.1875Z" fill="#2867B2"/>
</svg>
