<svg width="64" height="64" viewBox="0 0 64 64" fill="none" xmlns="http://www.w3.org/2000/svg">
<g clip-path="url(#clip0_322_19)">
<path d="M56.5968 17.6923L53.0857 52.9491H10.9144L8.08569 18.3746L32.0001 31.7639L56.5968 17.6923Z" fill="#F2F2F2"/>
<path d="M55.4057 11.0509L32 33.0376L8.59424 11.0509H32H55.4057Z" fill="#F2F2F2"/>
<path d="M10.9144 21.2033V52.9491H7.09306C5.66145 52.9491 4.5 51.7877 4.5 50.356V16.5277L8.68945 16.6419L10.9144 21.2033Z" fill="#D32E2A"/>
<path d="M59.5001 16.5277V50.3561C59.5001 51.7877 58.3386 52.9492 56.9056 52.9492H53.0857V21.2033L55.201 16.2055L59.5001 16.5277Z" fill="#D32E2A"/>
<path d="M59.5 13.644V16.5277L53.0856 21.2034L32 36.572L10.9144 21.2034L4.5 16.5277V13.644C4.5 12.2124 5.66145 11.0509 7.09306 11.0509H8.59428L32 28.1105L55.4057 11.0509H56.9055C58.3386 11.0509 59.5 12.2123 59.5 13.644Z" fill="#F14336"/>
<path d="M10.9144 21.2033L4.5 20.2088V16.5277L10.9144 21.2033Z" fill="#D32E2A"/>
</g>
<defs>
<clipPath id="clip0_322_19">
<rect width="55" height="55" fill="white" transform="translate(4.5 4.5)"/>
</clipPath>
</defs>
</svg>
